# xmcd
#
# Track frame offsets:
#	150
#	3213
#	19592
#	37041
#	51996
#	75339
#	96696
#	122097
#	141777
#	159751
#	179032
#	204959
#	226066
#	242728
#	264714
#	281046
#	305511
#
# Disc length: 4376 seconds
#
# Revision: 1
# Processed by: cddbd v1.4PL0 Copyright (c) Steve Scherf et al.
# Submitted via: audiograbber 1.82.01
#
DISCID=e2111611
DTITLE=Taxi  - Vol.01
DYEAR=2001
DGENRE=
TTITLE0=Intro
TTITLE1=Roma - Я не с тобой
TTITLE2=Atlant-S - Бог с тобой
TTITLE3=Delta - Танец огня
TTITLE4=Inna - Забудь
TTITLE5=DJ VIital 3 Желания - Ля-ля-ля
TTITLE6=Разряд 22 - Мелодия вьюги
TTITLE7=Ольга Чеченская - Я ухожу от тебя
TTITLE8=Status - Цыгане
TTITLE9=Апрельские сны - Буду ждать
TTITLE10=Roma - Девочка
TTITLE11=Viktor - Самарканд
TTITLE12=Delta - Ветер
TTITLE13=Vit-@-min - Нехорошая
TTITLE14=Dance Proekt - Прощай
TTITLE15=DJ Wal - Космос
TTITLE16=Artur Kromm - От судьбы не уйти
EXTD=
EXTT0=
EXTT1=
EXTT2=
EXTT3=
EXTT4=
EXTT5=
EXTT6=
EXTT7=
EXTT8=
EXTT9=
EXTT10=
EXTT11=
EXTT12=
EXTT13=
EXTT14=
EXTT15=
EXTT16=
PLAYORDER=
